<svg data-v-0dd9719b="" version="1.0" xmlns="http://www.w3.org/2000/svg" xmlns:xlink="http://www.w3.org/1999/xlink" width="100%" height="100%" viewBox="0 0 340.000000 250.000000" preserveAspectRatio="xMidYMid meet" color-interpolation-filters="sRGB" style="margin: auto;"> <rect data-v-0dd9719b="" x="0" y="0" width="100%" height="100%" fill="#ffffff" fill-opacity="1" class="background"></rect> <rect data-v-0dd9719b="" x="0" y="0" width="100%" height="100%" fill="url(#watermark)" fill-opacity="1" class="watermarklayer"></rect> <g data-v-0dd9719b="" fill="#241817" class="icon-text-wrapper icon-svg-group iconsvg" transform="translate(54.99000549316406,94.98288917541504)"><g class="iconsvg-imagesvg" transform="translate(0,0)"><g><rect fill="#241817" fill-opacity="0" stroke-width="2" x="0" y="0" width="60" height="60.03421950511792" class="image-rect"></rect> <svg filter="url(#colors2026837488)" x="0" y="0" width="60" height="60.03421950511792" filtersec="colorsf3189524325" class="image-svg-svg primary" style="overflow: visible;"><svg xmlns="http://www.w3.org/2000/svg" viewBox="4.470348358154297e-7 -0.00019633769989013672 105.0999984741211 105.16020202636719"><path d="M26.33 52.84c0-.1 0-.21-.08-.32h25.63c.07 0 .14-.12.21-.18l-.37.37L26.3 27.22v25.34H1.41c-1.2 0-1.41-.44-1.4-1.5V27.68c0-1.17.43-1.43 1.5-1.43H25.89L.23.69l.3-.5A7.87 7.87 0 0 1 1.6 0h23.53a3.71 3.71 0 0 1 2.28 1.11C35.38 9.08 43.29 17 51.22 25c.34.34.71.65 1.35 1.23v-1.99V1.61c0-1.25.35-1.62 1.6-1.61q11.44.08 22.9 0c1.36 0 1.81.34 1.8 1.76-.07 7.34 0 14.68 0 22v1.93l.35.23L105 .14c0 .94.1 1.41.1 1.89v22.78a4 4 0 0 1-1 2.48Q92 39.47 79.88 51.52a7.73 7.73 0 0 1-1.07.78V27.73c0-1.12-.35-1.45-1.47-1.44h-23.2a9.34 9.34 0 0 0-1.27.17c.34.42.53.7.77.94l24 24a10.19 10.19 0 0 0 1.18.86c0 .13 0 .27.05.4a2.2 2.2 0 0 0-.43-.09H53.88a5.76 5.76 0 0 0-.91.15l.47-.31L78.86 78V52.62H105c0 .67.08 1.2.08 1.74v22.48c0 2 0 2-1.94 2H79.11l25.74 25.69-.26.43a9.85 9.85 0 0 1-1.09.15H79.97a3.29 3.29 0 0 1-2.06-.93Q66 92.36 54.22 80.48a11.88 11.88 0 0 1-1.11-1.43l-.54.25v24.3c0 1.18-.31 1.56-1.52 1.55q-11.61-.08-23.23 0c-1.34 0-1.56-.51-1.55-1.68V79c-8.76 8.8-17.23 17.33-26 26.16a11.42 11.42 0 0 1-.27-1.48V79.99a3.14 3.14 0 0 1 .9-1.94q12.27-12.37 24.6-24.68a5.22 5.22 0 0 1 .87-.57c0 8.1 0 16.19-.1 24.28 0 1.5.49 1.81 1.89 1.8 7.49-.07 15 0 22.46 0 .48 0 1-.06 1.72-.11-.53-.58-.84-1-1.18-1.29l-21-21c-1.24-1.27-2.55-2.48-3.83-3.64z" fill="#000000"></path></svg></svg> <defs><filter id="colors2026837488"><feColorMatrix type="matrix" values="0 0 0 0 0.6328125  0 0 0 0 0.01171875  0 0 0 0 0  0 0 0 1 0" class="icon-fecolormatrix"></feColorMatrix></filter> <filter id="colorsf3189524325"><feColorMatrix type="matrix" values="0 0 0 0 0.99609375  0 0 0 0 0.99609375  0 0 0 0 0.99609375  0 0 0 1 0" class="icon-fecolormatrix"></feColorMatrix></filter> <filter id="colorsb3007474163"><feColorMatrix type="matrix" values="0 0 0 0 0  0 0 0 0 0  0 0 0 0 0  0 0 0 1 0" class="icon-fecolormatrix"></feColorMatrix></filter></defs></g></g> <g transform="translate(67,6.127111434936523)"><g data-gra="path-name" fill-rule="" class="tp-name iconsvg-namesvg"><g transform="scale(1)"><g><path d="M43.62-46.02L43.62-46.02 43.62-44.72Q41.54-44.46 40.46-43.65 39.39-42.84 39.07-41.08 38.74-39.33 38.74-36.14L38.74-36.14 38.74-18.91Q38.74-14.69 38.16-11.18 37.57-7.67 36.08-5.13L36.08-5.13Q34.38-2.34 31.14-0.72 27.89 0.91 22.88 0.91L22.88 0.91Q19.89 0.91 16.77 0.23 13.65-0.46 11.18-2.34L11.18-2.34Q9.1-4.09 8-6.31 6.89-8.52 6.5-11.54 6.11-14.56 6.11-18.72L6.11-18.72 6.11-39.13Q6.11-41.54 5.75-42.67 5.4-43.81 4.36-44.23 3.31-44.66 1.24-44.72L1.24-44.72 1.24-46.02Q2.86-45.95 5.62-45.89 8.38-45.83 11.38-45.83L11.38-45.83Q14.37-45.83 17.13-45.89 19.89-45.95 21.71-46.02L21.71-46.02 21.71-44.72Q19.5-44.66 18.36-44.23 17.23-43.81 16.84-42.67 16.45-41.54 16.45-39.13L16.45-39.13 16.45-14.63Q16.45-10.27 17.23-7.31 18-4.36 19.99-2.86 21.97-1.36 25.41-1.36L25.41-1.36Q29.96-1.36 32.53-3.51 35.1-5.66 36.17-9.46 37.25-13.26 37.25-18.2L37.25-18.2 37.25-35.36Q37.25-38.94 36.79-40.85 36.34-42.77 35-43.62 33.67-44.46 30.94-44.72L30.94-44.72 30.94-46.02Q32.18-45.95 34.19-45.89 36.2-45.83 37.96-45.83L37.96-45.83Q39.52-45.83 41.05-45.89 42.58-45.95 43.62-46.02ZM63.25-46.87L63.25-46.87Q67.08-46.87 69.16-46.05 71.24-45.24 72.73-44.33L72.73-44.33Q73.52-43.88 74-43.65 74.49-43.42 74.95-43.42L74.95-43.42Q75.99-43.42 76.38-46.28L76.38-46.28 77.87-46.28Q77.81-45.05 77.71-43.32 77.61-41.6 77.58-38.8 77.55-36.01 77.55-31.46L77.55-31.46 76.05-31.46Q75.79-34.84 74.49-38.02 73.19-41.21 70.82-43.26 68.45-45.3 65-45.3L65-45.3Q61.88-45.3 59.87-43.55 57.85-41.8 57.85-38.68L57.85-38.68Q57.85-36.08 59.15-34.22 60.45-32.37 62.95-30.62 65.46-28.86 69.03-26.39L69.03-26.39Q72.15-24.38 74.62-22.36 77.09-20.35 78.59-17.81 80.08-15.28 80.08-11.77L80.08-11.77Q80.08-7.48 77.84-4.68 75.59-1.89 71.96-0.49 68.31 0.91 63.96 0.91L63.96 0.91Q59.93 0.91 57.53 0.13 55.12-0.65 53.5-1.5L53.5-1.5Q52.07-2.41 51.29-2.41L51.29-2.41Q50.25-2.41 49.86 0.46L49.86 0.46 48.36 0.46Q48.49-1.1 48.52-3.19 48.56-5.27 48.59-8.61 48.62-11.96 48.62-17.09L48.62-17.09 50.12-17.09Q50.38-12.8 51.58-9.07 52.78-5.33 55.28-3.06 57.79-0.78 61.95-0.78L61.95-0.78Q65.33-0.78 67.67-2.6 70.01-4.42 70.01-8.06L70.01-8.06Q70.01-12.09 67.28-14.72 64.55-17.36 60.26-20.15L60.26-20.15Q57.2-22.16 54.54-24.18 51.87-26.2 50.28-28.8 48.69-31.39 48.69-34.97L48.69-34.97Q48.69-39.07 50.73-41.7 52.78-44.33 56.13-45.6 59.48-46.87 63.25-46.87ZM101.21-46.87L101.21-46.87Q105.04-46.87 107.12-46.05 109.2-45.24 110.7-44.33L110.7-44.33Q111.48-43.88 111.96-43.65 112.45-43.42 112.91-43.42L112.91-43.42Q113.95-43.42 114.34-46.28L114.34-46.28 115.83-46.28Q115.77-45.05 115.67-43.32 115.57-41.6 115.54-38.8 115.5-36.01 115.5-31.46L115.5-31.46 114.01-31.46Q113.75-34.84 112.45-38.02 111.15-41.21 108.78-43.26 106.41-45.3 102.96-45.3L102.96-45.3Q99.84-45.3 97.83-43.55 95.81-41.8 95.81-38.68L95.81-38.68Q95.81-36.08 97.11-34.22 98.41-32.37 100.91-30.62 103.42-28.86 106.99-26.39L106.99-26.39Q110.11-24.38 112.58-22.36 115.05-20.35 116.55-17.81 118.04-15.28 118.04-11.77L118.04-11.77Q118.04-7.48 115.8-4.68 113.56-1.89 109.92-0.49 106.28 0.91 101.92 0.91L101.92 0.91Q97.89 0.91 95.48 0.13 93.08-0.65 91.46-1.5L91.46-1.5Q90.03-2.41 89.25-2.41L89.25-2.41Q88.2-2.41 87.81 0.46L87.81 0.46 86.32 0.46Q86.45-1.1 86.48-3.19 86.52-5.27 86.55-8.61 86.58-11.96 86.58-17.09L86.58-17.09 88.08-17.09Q88.34-12.8 89.54-9.07 90.74-5.33 93.24-3.06 95.75-0.78 99.91-0.78L99.91-0.78Q103.28-0.78 105.63-2.6 107.97-4.42 107.97-8.06L107.97-8.06Q107.97-12.09 105.24-14.72 102.51-17.36 98.22-20.15L98.22-20.15Q95.16-22.16 92.5-24.18 89.83-26.2 88.24-28.8 86.65-31.39 86.65-34.97L86.65-34.97Q86.65-39.07 88.69-41.7 90.74-44.33 94.09-45.6 97.44-46.87 101.21-46.87ZM164.26-46.02L164.26-46.02 164.26-44.72Q162.83-44.2 161.23-42.45 159.64-40.69 158.28-36.98L158.28-36.98 144.56 0.13Q144.04 0.07 143.46 0.07 142.87 0.07 142.29 0.07L142.29 0.07Q141.77 0.07 141.18 0.07 140.6 0.07 140.08 0.13L140.08 0.13 123.5-40.56Q122.59-42.9 121.49-43.78 120.38-44.66 119.41-44.72L119.41-44.72 119.41-46.02Q121.36-45.95 123.99-45.89 126.62-45.83 129.29-45.83L129.29-45.83Q132.28-45.83 134.91-45.89 137.54-45.95 139.17-46.02L139.17-46.02 139.17-44.72Q135.98-44.59 135.01-43.65 134.03-42.7 135.4-39.26L135.4-39.26 147.23-9.17 145.86-7.54 154.83-31.72Q156.59-36.59 156.65-39.39 156.72-42.19 155.29-43.42 153.86-44.66 151.19-44.72L151.19-44.72 151.19-46.02Q153.4-45.95 155.35-45.89 157.3-45.83 159.32-45.83L159.32-45.83Q160.75-45.83 162.01-45.89 163.28-45.95 164.26-46.02Z" transform="translate(-1.2400000095367432, 46.869998931884766)"></path></g> <!----> <!----> <!----> <!----> <!----> <!----> <!----></g></g> <!----></g></g><defs v-gra="od"></defs></svg>