<svg data-v-0dd9719b="" version="1.0" xmlns="http://www.w3.org/2000/svg" xmlns:xlink="http://www.w3.org/1999/xlink" width="100%" height="100%" viewBox="0 0 340.000000 250.000000" preserveAspectRatio="xMidYMid meet" color-interpolation-filters="sRGB" style="margin: auto;"> <rect data-v-0dd9719b="" x="0" y="0" width="100%" height="100%" fill="#ffffff" fill-opacity="1" class="background"></rect> <rect data-v-0dd9719b="" x="0" y="0" width="100%" height="100%" fill="url(#watermark)" fill-opacity="1" class="watermarklayer"></rect> <g data-v-0dd9719b="" fill="#333333" class="pmspacesvg" transform="translate(62.385658264160156,90.37101745605469)"><!----> <g><g transform="translate(0,0)" mask="url(#3b8f0b9d-a05f-454a-8a97-50f3b46a90de)"><g><rect data-gra="graph-name" fill="#333333" x="0" y="0" rx="27.15273094177246" ry="27.15273094177246" width="215.22869873046875" height="54.30546188354492"></rect></g> <g data-gra="path-name" fill-rule="" class="tp-name" transform="translate(20,10)"><g transform="scale(1)"><g><path d="M23.69-25.97L23.69-25.97Q24.65-27.73 26.19-26.63L26.19-26.63Q28.17-24.92 27.69-23.16L27.69-23.16Q26.98-20.96 26.81-18.24L26.81-18.24Q26.81-17.18 28.13-17.14L28.13-17.14Q34.15-17.09 37.71-16.7L37.71-16.7Q39.81-16.22 38.63-14.28L38.63-14.28Q37.75-13.05 36.39-13.18L36.39-13.18Q32.61-13.97 28.13-13.89L28.13-13.89Q26.67-13.71 26.67-12.79L26.67-12.79Q26.67-10.37 26.89-7.73L26.89-7.73Q26.85-6.59 27.51-5.98L27.51-5.98Q28.13-5.23 30.15-4.83L30.15-4.83Q37.27-2.77 41.92-5.05L41.92-5.05Q43.24-4.7 42.5-3.3L42.5-3.3Q40.39 1.23 37.05 1.01L37.05 1.01Q30.54-0.53 25.09-3.47L25.09-3.47Q24.08-4.26 23.95-5.54L23.95-5.54Q23.6-7.29 23.82-12L23.82-12 23.86-22.63 23.73-24.39Q23.51-25.27 23.69-25.97ZM15.64-26.67L15.64-26.67Q17.8-26.85 18.24-24.39L18.24-24.39Q18.33-23.33 17.89-20.87L17.89-20.87Q17.53-15.78 17.75-6.94L17.75-6.94Q17.75-5.71 18.33-5.67L18.33-5.67Q20.35-5.36 19.07-3.65L19.07-3.65Q18.54-3.21 17.31-2.77L17.31-2.77Q11.25-2.15 4.88 0.22L4.88 0.22Q4 0.53 3.16 0L3.16 0Q2.2-0.75 2.68-1.63L2.68-1.63Q3.82-3.47 5.89-4.22L5.89-4.22Q8.66-4.44 13.4-5.32L13.4-5.32Q14.46-5.45 14.46-6.5L14.46-6.5Q14.41-9.54 14.5-12.57L14.5-12.57Q14.55-13.93 13.49-13.93L13.49-13.93Q9.27-13.84 6.46-13.23L6.46-13.23Q5.58-12.96 4.7-13.05L4.7-13.05Q2.94-13.36 3.52-15.07L3.52-15.07Q4.79-17.53 7.12-17.18L7.12-17.18Q8.7-16.92 13.49-17.14L13.49-17.14Q14.55-17.23 14.5-18.54L14.5-18.54Q14.46-21.09 14.24-23.69L14.24-23.69Q13.71-25.97 15.64-26.67ZM65.79-30.85L65.79-30.85Q67.9-31.55 68.12-28.92L68.12-28.92Q68.07-28.48 69.13-28.48L69.13-28.48Q76.38-28.52 83.63-28.43L83.63-28.43Q85.43-28.7 85.52-27.33L85.52-27.33Q84.9-24.65 82.35-25.31L82.35-25.31Q77.34-26.32 67.24-25.4L67.24-25.4Q66.18-25.27 65-23.95L65-23.95Q60.95-19.56 58.67-21.27L58.67-21.27Q56.78-23.12 59.46-24.21L59.46-24.21Q61.22-24.83 62.97-25.97L62.97-25.97Q65.3-27.33 65.39-29.22L65.39-29.22Q65.3-30.23 65.79-30.85ZM51.06-28.96L51.06-28.96Q52.78-30.19 54.36-29.31L54.36-29.31Q55.37-28.21 56.38-27.47L56.38-27.47Q58.32-26.37 57.66-24.87L57.66-24.87Q57.26-24.13 56.16-24.57L56.16-24.57Q53.96-25.62 51.77-25.97L51.77-25.97Q49.04-27.03 51.06-28.96ZM65.26-21.67L65.26-21.67Q66.27-22.72 67.85-22.5L67.85-22.5 76.29-22.15Q79.72-22.19 81.56-21.67L81.56-21.67Q83.8-20.43 82.75-18.46L82.75-18.46 82.31-14.99Q82.13-13.8 83.1-13.71L83.1-13.71 88.07-13.01Q90.26-12.96 89.3-11.34L89.3-11.34Q87.32-8.17 85.17-9.58L85.17-9.58Q83.94-10.15 82.66-10.59L82.66-10.59Q81.52-10.94 81.25-9.62L81.25-9.62 80.42-6.68Q80.11-5.54 81.39-5.36L81.39-5.36Q83.58-5.1 84.38-4.66L84.38-4.66Q86.09-4.09 86.09-2.46L86.09-2.46Q85.56-0.35 83.14-1.19L83.14-1.19Q81.43-1.98 79.94-2.24L79.94-2.24Q78.88-2.46 78.18-1.1L78.18-1.1Q75.81 2.72 73.65 3.25L73.65 3.25Q73.04 3.47 72.25 2.86L72.25 2.86Q70.88 1.89 71.98 0.75L71.98 0.75Q73.48-0.35 74.44-1.63L74.44-1.63Q75.45-3.03 74.14-3.25L74.14-3.25Q71.63-3.56 68.07-3.47L68.07-3.47Q65.39-3.21 62.67-3.12L62.67-3.12Q60.69-3.56 61.04-5.05L61.04-5.05Q61.39-7.21 62.14-10.24L62.14-10.24Q62.45-11.34 61.08-10.94L61.08-10.94Q59.59-10.42 58.1-9.76L58.1-9.76Q56.95-9.45 56.34-9.98L56.34-9.98Q55.24-10.77 56.25-12.57L56.25-12.57Q57.48-14.15 59.28-13.97L59.28-13.97 62.14-14.02Q63.19-14.06 63.54-15.38L63.54-15.38Q64.47-20.04 65.26-21.67ZM70.4-19.6L70.4-19.6 69.52-19.56Q68.25-19.51 67.85-18.9L67.85-18.9Q67.32-18.06 66.67-15.47L66.67-15.47Q66.36-14.33 67.63-14.41L67.63-14.41Q69.3-14.55 71.1-14.55L71.1-14.55Q72.16-14.55 71.59-15.86L71.59-15.86Q71.41-16.61 71.06-17.18L71.06-17.18Q70.53-18.28 71.46-19.34L71.46-19.34Q71.89-19.73 70.4-19.6ZM77.61-19.38L77.61-19.38Q76.2-19.73 74.49-19.73L74.49-19.73Q73.26-19.73 73.56-19.51L73.56-19.51Q74.4-18.9 74.4-18.11L74.4-18.11Q74.18-16.96 73.78-15.69L73.78-15.69Q73.17-14.5 74.36-14.46L74.36-14.46Q76.2-14.41 78.18-14.24L78.18-14.24Q79.1-14.15 79.28-15.6L79.28-15.6Q79.94-18.63 77.61-19.38ZM48.34-18.11L48.34-18.11Q50.49-20.08 52.69-17.8L52.69-17.8Q53.39-17.14 54.45-16.61L54.45-16.61Q55.15-16.17 55.2-15.21L55.2-15.21Q55.11-13.93 53.61-14.24L53.61-14.24Q51.86-14.9 49.22-15.21L49.22-15.21Q46.67-15.95 48.34-18.11ZM70.36-12.08L70.36-12.08Q68.55-12.04 66.71-11.87L66.71-11.87Q65.65-11.73 65.21-10.37L65.21-10.37Q64.82-9.01 64.6-7.51L64.6-7.51Q64.51-6.46 65.7-6.46L65.7-6.46Q67.94-6.5 70.31-6.37L70.31-6.37Q71.32-6.33 71.1-6.55L71.1-6.55Q70.71-6.99 70.53-8.26L70.53-8.26Q70.09-9.14 69.96-10.02L69.96-10.02Q69.87-10.77 70.53-11.51L70.53-11.51Q71.19-12.08 70.36-12.08ZM77.34-11.73L77.34-11.73Q75.23-12 73.13-12.08L73.13-12.08Q71.94-12.08 72.47-11.87L72.47-11.87Q74.27-10.68 73.26-8.96L73.26-8.96Q72.95-7.12 72.51-6.5L72.51-6.5Q72.2-6.24 73.52-6.15L73.52-6.15Q74.71-6.11 75.89-5.93L75.89-5.93Q76.95-5.84 77.43-7.21L77.43-7.21Q78-8.83 78.4-10.46L78.4-10.46Q78.66-11.56 77.34-11.73ZM54.45-7.16L54.45-7.16Q55.99-9.14 57.04-8.31L57.04-8.31Q57.39-7.95 57.04-6.59L57.04-6.59Q56.34-4.92 55.15-3.38L55.15-3.38Q53.75-1.19 52.47 1.01L52.47 1.01Q50.67 2.68 49.04 0.48L49.04 0.48Q48.03-0.83 49.53-2.15L49.53-2.15Q51.64-3.78 54.45-7.16ZM120.28-29.53L120.28-29.53Q121.51-31.77 123.27-29.05L123.27-29.05Q123.84-28.08 122.87-27.11L122.87-27.11Q122.34-26.54 123.66-26.54L123.66-26.54Q124.41-26.54 125.29-26.72L125.29-26.72Q127.13-27.07 128.45-25.84L128.45-25.84Q129.59-24.87 128.85-23.2L128.85-23.2Q128.5-22.15 128.32-19.69L128.32-19.69Q128.28-18.72 128.06-17.75L128.06-17.75Q127.97-16.3 126.3-15.91L126.3-15.91Q122.48-16.22 119.36-15.78L119.36-15.78Q118.3-15.47 118.17-14.81L118.17-14.81Q118.13-14.11 119.18-14.11L119.18-14.11Q126.21-14.19 133.37-14.11L133.37-14.11Q134.6-13.18 133.2-11.91L133.2-11.91Q132.06-10.46 130.61-10.59L130.61-10.59Q125.55-12.04 119.27-11.38L119.27-11.38Q117.25-11.47 118.56-9.76L118.56-9.76Q124.98-10.06 128.8-9.49L128.8-9.49Q130.91-9.23 132.32-8.44L132.32-8.44Q134.3-6.94 132.93-5.05L132.93-5.05Q132.32-3.3 131.88-1.54L131.88-1.54Q131.4 0.4 129.73 1.98L129.73 1.98Q128.89 3.03 127.71 3.08L127.71 3.08Q126.96 2.9 126.96 2.24L126.96 2.24Q127 1.49 127.92 0.09L127.92 0.09Q129.46-3.78 129.29-6.06L129.29-6.06Q128.8-7.12 126.56-7.29L126.56-7.29Q121.6-7.43 118.04-6.86L118.04-6.86Q117.42-6.5 116.28-6.28L116.28-6.28Q114.39-6.28 114.65-8L114.65-8Q115.8-11.07 115.36-16.74L115.36-16.74Q115.18-20.04 114.83-23.38L114.83-23.38Q114.74-25.4 115.05-26.5L115.05-26.5Q115.71-27.07 117.29-26.89L117.29-26.89 118.7-26.76Q119.66-26.63 119.93-28.08L119.93-28.08Q120.01-28.87 120.28-29.53ZM95.67-27.2L95.67-27.2Q96.42-27.86 98.22-27.29L98.22-27.29Q99.1-27.03 101.38-27.11L101.38-27.11Q104.41-26.94 103.27-23.95L103.27-23.95Q102.22-18.24 103.1-8.48L103.1-8.48Q103.32-7.47 103.62-8.7L103.62-8.7Q104.68-16.3 104.15-24.92L104.15-24.92Q104.55-28.26 107.23-27.38L107.23-27.38Q108.41-26.76 110.65-26.98L110.65-26.98Q114.17-26.98 112.76-23.29L112.76-23.29Q112.1-20.08 112.15-16.13L112.15-16.13Q112.1-10.11 112.98-3.03L112.98-3.03Q113.47-1.41 112.41-0.26L112.41-0.26Q110.87 0.4 110.21-1.05L110.21-1.05Q109.56-4.39 109.64-8.44L109.64-8.44Q109.64-9.49 108.33-10.02L108.33-10.02Q106.88-10.2 106.74-8.92L106.74-8.92Q106.26-5.49 104.9-2.37L104.9-2.37Q104.72-1.36 103.49-0.35L103.49-0.35Q101.78 0.83 100.94-0.97L100.94-0.97Q100.63-1.89 101.95-3.69L101.95-3.69Q102.39-4.79 102.04-4.75L102.04-4.75Q101.43-4.66 100.81-5.41L100.81-5.41Q100.11-6.68 100.15-8.96L100.15-8.96Q100.15-10.02 98.83-10.15L98.83-10.15Q97.34-10.06 97.16-8.79L97.16-8.79Q96.64-5.19 95.23-2.29L95.23-2.29Q93.96-0.35 92.5-0.7L92.5-0.7Q91.05-1.45 91.89-2.86L91.89-2.86Q94.35-7.25 94.57-13.4L94.57-13.4Q94.83-17.14 94.75-23.99L94.75-23.99Q94.39-25.8 95.67-27.2ZM99.84-24.65L99.84-24.65Q99.4-24.79 98.66-24.65L98.66-24.65Q97.82-24.35 97.78-23.29L97.78-23.29Q97.69-22.41 97.73-21.53L97.73-21.53Q97.73-20.48 98.26-20.57L98.26-20.57Q98.88-20.61 99.45-20.39L99.45-20.39Q100.28-19.91 100.28-20.92L100.28-20.92Q100.24-22.15 100.33-23.42L100.33-23.42Q100.28-24.48 99.84-24.65ZM109.78-20.79L109.78-22.98Q110.3-24.92 108.06-24.57L108.06-24.57Q107.36-24.3 107.23-22.98L107.23-22.98 107.23-21.8Q107.18-20.57 107.67-20.65L107.67-20.65Q108.28-20.61 108.98-20.21L108.98-20.21Q109.78-19.78 109.78-20.79L109.78-20.79ZM124.85-24.04L124.85-24.04Q121.68-24.08 118.52-23.99L118.52-23.99Q117.82-23.77 117.99-23.03L117.99-23.03Q117.95-22.59 119.05-22.59L119.05-22.59Q121.73-22.5 124.54-22.59L124.54-22.59Q125.6-22.63 125.6-23.12L125.6-23.12Q125.73-23.86 124.85-24.04ZM124.23-19.95L124.23-19.95Q121.64-20 119.05-19.86L119.05-19.86Q117.99-19.82 117.99-19.25L117.99-19.25Q118.08-17.8 119.58-18.24L119.58-18.24 123.09-18.5Q124.89-18.28 125.33-19.42L125.33-19.42Q125.29-19.86 124.23-19.95ZM109.69-13.49L109.73-15.64Q109.73-16.96 108.41-17.36L108.41-17.36Q107.14-17.53 107.14-16.35L107.14-16.35 107.05-14.28Q107.05-13.23 107.49-13.23 107.93-13.23 108.81-12.83 109.69-12.44 109.69-13.49L109.69-13.49ZM100.2-16.26L100.2-16.26Q100.24-17.36 98.92-17.4L98.92-17.4Q97.69-17.4 97.69-16.22L97.69-16.22 97.6-14.24Q97.6-13.18 98.04-13.23L98.04-13.23Q98.48-13.23 99.27-13.01L99.27-13.01Q100.11-12.57 100.15-13.97L100.15-13.97Q100.11-15.12 100.2-16.26ZM122.12-5.93L122.12-5.93Q122.96-6.42 123.84-5.63L123.84-5.63Q124.37-5.1 124.23-3.65L124.23-3.65 123.71-0.31Q122.65 0.13 122.17-1.36L122.17-1.36Q121.29-3.47 121.33-4.88L121.33-4.88Q121.55-5.67 122.12-5.93ZM125.73-5.71L125.73-5.71Q128.14-6.86 127.97-3.91L127.97-3.91 127.62-1.27Q127.57-0.09 126.65-0.44L126.65-0.44Q125.95-1.45 125.46-3.3L125.46-3.3Q124.89-4.61 125.73-5.71ZM114.08-5.45L114.08-5.45Q115.62-6.02 116.28-4.26L116.28-4.26 116.67-1.19Q116.76 0.44 116.37 0.7L116.37 0.7Q116.06 0.75 115-0.4L115-0.4Q113.25-2.9 113.29-4.53L113.29-4.53Q113.51-5.01 114.08-5.45ZM117.55-5.23L117.55-5.23Q118.43-6.15 119.71-5.45L119.71-5.45Q120.67-3.78 120.28-0.35L120.28-0.35Q119.53 0.62 118.48-1.23L118.48-1.23Q117.55-2.68 117.33-3.56L117.33-3.56Q116.98-4.39 117.55-5.23ZM151.52-29.71L151.52-29.71Q153.72-30.01 157.72-29.93L157.72-29.93 159.48-29.66Q161.89-28.96 161.54-26.85L161.54-26.85 160.84-19.82Q160.71-18.11 158.69-17.45L158.69-17.45Q154.82-17.49 153.06-17.31L153.06-17.31Q151.7-16.83 151.57-15.51L151.57-15.51Q151.39-6.86 148.1 0.79L148.1 0.79Q148.01 2.24 146.16 2.81L146.16 2.81Q145.2 2.99 144.62 1.8L144.62 1.8Q144.32 0.57 145.28-1.71L145.28-1.71 145.68-2.59Q146.34-3.3 146.87-5.23L146.87-5.23Q149.28-14.55 148.71-27.91L148.71-27.91Q148.8-30.15 151.52-29.71ZM164.18-29.31L164.18-29.31Q165.01-29.58 167.48-29.49L167.48-29.49Q170.68-29.31 173.89-29.36L173.89-29.36Q174.95-29.49 175.65-28.74L175.65-28.74Q176.53-27.95 176.35-26.98L176.35-26.98Q175.3-22.63 175.65-17.71L175.65-17.71Q175.87-8.66 177.67-0.13L177.67-0.13Q178.11 2.55 176.09 2.99L176.09 2.99Q175.39 3.08 174.9 2.29L174.9 2.29Q174.11-0.18 173.67-4.75L173.67-4.75Q173.14-9.93 172.66-16.88L172.66-16.88Q172.49-17.93 171.17-18.11L171.17-18.11Q168.84-18.11 165.63-17.4L165.63-17.4Q164-16.83 163.61-18.85L163.61-18.85Q163.48-22.59 163.17-26.37L163.17-26.37Q163.13-27.51 163.3-28.13L163.3-28.13Q163.56-29.09 164.18-29.31ZM140.1-27.64L140.1-27.64Q141.5-29.18 143.31-28.56L143.31-28.56Q143.75-28.43 144.18-27.95L144.18-27.95Q144.89-26.98 145.81-26.32L145.81-26.32Q147.17-25.18 146.29-23.99L146.29-23.99Q145.2-23.38 144.27-24.13L144.27-24.13Q143.04-24.7 140.76-25.22L140.76-25.22Q139-26.1 140.1-27.64ZM156.88-27.16L156.88-27.16Q154.64-27.38 153.11-27.03L153.11-27.03Q151.66-27.11 151.66-25.62L151.66-25.62Q151.61-24.92 152.71-24.87L152.71-24.87Q154.91-24.79 157.24-24.87L157.24-24.87Q158.38-24.92 158.29-25.93L158.29-25.93Q158.03-26.94 156.88-27.16ZM171.04-26.98L171.04-26.98Q167.52-27.2 166.29-26.37L166.29-26.37Q165.23-24.57 166.99-24.87L166.99-24.87Q169.23-24.79 171.61-24.87L171.61-24.87Q172.66-24.96 172.62-25.84L172.62-25.84Q172.35-26.72 171.04-26.98ZM158.16-20.83L158.29-21.53Q158.29-22.06 157.02-22.15L157.02-22.15Q154.91-22.24 152.75-22.15L152.75-22.15Q151.7-22.06 151.7-20.96L151.7-20.96Q151.74-19.86 153.15-19.86L153.15-19.86Q156.8-20 158.16-20.83L158.16-20.83ZM172.57-21.36L172.57-21.36Q172.57-22.15 171.25-22.24L171.25-22.24 167.48-22.24Q166.03-22.1 166.07-21.4L166.07-21.4Q165.89-20.39 167.17-20.26L167.17-20.26Q168.84-20.35 170.82-20.61L170.82-20.61 171.39-20.61Q172.44-20.61 172.57-21.36ZM138.08-17.53L138.08-17.53Q139.48-18.94 141.06-18.41L141.06-18.41Q141.72-18.06 143.26-16.83L143.26-16.83Q145.33-16.04 144.58-14.37L144.58-14.37Q143.96-13.58 142.16-14.33L142.16-14.33Q140.41-14.63 138.65-14.81L138.65-14.81Q136.67-15.73 138.08-17.53ZM166.07-15.91L166.07-15.91Q166.95-16.48 167.7-15.25L167.7-15.25Q169.5-12.7 166.42-12.39L166.42-12.39 165.19-12.35Q164.14-12.26 164-11.25L164-11.25Q164-10.15 165.06-10.15L165.06-10.15Q167.65-10.11 168.71-9.84L168.71-9.84Q169.76-9.71 169.63-8.48L169.63-8.48Q169.41-7.78 168.88-7.56L168.88-7.56Q167.96-7.29 165.15-7.51L165.15-7.51Q164.09-7.51 164.09-6.33L164.09-6.33Q164.18-5.14 165.5-5.05L165.5-5.05Q168.13-4.83 170.77-4.44L170.77-4.44Q172.92-4.57 172.09-2.94L172.09-2.94Q170.2-0.31 168.49-1.19L168.49-1.19Q166.99-1.98 165.32-2.2L165.32-2.2Q159.79-2.86 156.23-1.76L156.23-1.76Q154.73-0.83 153.41-1.32L153.41-1.32Q152.8-1.67 152.75-2.55L152.75-2.55Q153.28-5.05 155.74-4.75L155.74-4.75Q157.81-4.97 159.87-5.05L159.87-5.05Q160.93-5.1 161.02-6.28L161.02-6.28Q161.06-7.47 159.74-7.47L159.74-7.47Q158.03-7.38 156.27-7.12L156.27-7.12Q154.42-7.29 154.73-9.01L154.73-9.01Q155.13-9.84 155.74-9.98L155.74-9.98Q157.68-10.37 160-10.24L160-10.24Q160.97-10.24 160.97-11.25L160.97-11.25Q160.88-12.17 159.57-12.13L159.57-12.13Q156.67-11.87 154.86-12.96L154.86-12.96Q154.6-13.4 155.08-13.8L155.08-13.8Q155.79-14.15 156.67-14.11L156.67-14.11Q160.18-14.5 163.7-15.07L163.7-15.07Q165.15-15.16 166.07-15.91ZM144.1-8.96L144.1-8.96Q144.93-9.32 145.42-8.75L145.42-8.75Q145.72-8.35 145.24-7.03L145.24-7.03Q144.76-5.98 142.91-3.52L142.91-3.52 141.86-1.76Q140.45 0.18 138.87-1.19L138.87-1.19Q136.54-3.21 139.31-4.88L139.31-4.88Q141.06-6.06 144.1-8.96Z" transform="translate(-2.5199999809265137, 30.997146606445312)"></path></g> <!----> <!----> <!----> <!----> <!----> <!----> <!----></g></g></g> <g data-gra="path-slogan" fill-rule="" class="tp-slogan" fill="#333333" transform="translate(57.364341735839844,60.30546188354492)"><!----> <!----> <g transform="scale(1, 1)"><g transform="scale(1)"><path d="M4.13-7.64L2.06-7.64L2.06-4.97L4.13-4.97Q5.95-4.92 5.91-6.38L5.91-6.38Q5.91-7.64 4.13-7.64L4.13-7.64ZM4.59 0L0.89 0L0.89-8.58L4.69-8.58Q6.98-8.48 7.08-6.42L7.08-6.42Q7.08-5.16 5.95-4.64L5.95-4.64Q7.55-4.08 7.55-2.53L7.55-2.53Q7.41-0.09 4.59 0L4.59 0ZM4.31-3.98L2.06-3.98L2.06-0.98L4.55-0.98Q6.33-1.03 6.38-2.53L6.38-2.53Q6.38-3.98 4.31-3.98L4.31-3.98ZM10.17-1.03L15.33-1.03L15.33 0L9 0L9-8.58L15.23-8.58L15.23-7.59L10.17-7.59L10.17-4.92L14.86-4.92L14.86-3.89L10.17-3.89L10.17-1.03ZM17.02-8.58L18.19-8.58L18.19 0L17.02 0L17.02-8.58ZM21.33-5.06L25.83-5.06L25.83-8.58L27-8.58L27 0L25.83 0L25.83-3.98L21.33-3.98L21.33 0L20.16 0L20.16-8.58L21.33-8.58L21.33-5.06ZM34.45 0L33.61-2.48L30.14-2.48L29.25 0L28.08 0L31.31-8.58L32.63-8.58L35.72 0L34.45 0ZM31.88-7.31L30.52-3.52L33.19-3.52L31.92-7.31L31.88-7.31ZM36.94-8.58L38.11-8.58L38.11 0L36.94 0L36.94-8.58ZM47.06-7.64L44.72-7.64L44.72-4.64L47.02-4.64Q48.80-4.64 48.80-6.19L48.80-6.19Q48.80-7.59 47.06-7.64L47.06-7.64ZM47.44-3.61L44.72-3.61L44.72 0L43.55 0L43.55-8.58L47.44-8.58Q49.88-8.48 49.97-6.19L49.97-6.19Q49.83-3.70 47.44-3.61L47.44-3.61ZM52.69-1.03L57.84-1.03L57.84 0L51.52 0L51.52-8.58L57.75-8.58L57.75-7.59L52.69-7.59L52.69-4.92L57.38-4.92L57.38-3.89L52.69-3.89L52.69-1.03ZM60.75-8.58L65.06-1.64L65.06-8.58L66.19-8.58L66.19 0L64.88 0L60.52-6.94L60.47-6.94L60.47 0L59.34 0L59.34-8.58L60.75-8.58ZM74.39-3.61L71.77-3.61L71.77-4.59L75.52-4.59L75.52 0L74.77 0L74.48-1.08Q73.50 0.09 71.67 0.14L71.67 0.14Q69.94 0.14 69-0.75L69-0.75Q67.59-2.06 67.64-4.36L67.64-4.36Q67.97-8.63 71.72-8.81L71.72-8.81Q74.91-8.63 75.38-6L75.38-6L74.25-6Q73.78-7.78 71.67-7.83L71.67-7.83Q69-7.64 68.86-4.31L68.86-4.31Q68.86-0.75 71.72-0.75L71.72-0.75Q72.75-0.75 73.50-1.31L73.50-1.31Q74.44-2.06 74.39-3.61L74.39-3.61ZM81.42-3.70L78.61-3.70L78.61 0L77.44 0L77.44-8.58L81.42-8.58Q84.28-8.58 84.28-6.28L84.28-6.28Q84.28-4.88 83.06-4.22L83.06-4.22Q84.09-3.94 84.09-2.58L84.09-2.58L84.19-1.03Q84.14-0.38 84.61-0.19L84.61-0.19L84.61 0L83.16 0Q83.02-0.61 82.97-2.16L82.97-2.16Q83.02-3.70 81.42-3.70L81.42-3.70ZM81.52-7.64L78.61-7.64L78.61-4.69L81.33-4.69Q83.06-4.69 83.06-6.19L83.06-6.19Q83.06-7.64 81.52-7.64L81.52-7.64ZM91.59-3.19L91.59-8.58L92.77-8.58L92.77-3.05Q92.63 0.05 89.25 0.14L89.25 0.14Q86.11 0.05 85.97-2.86L85.97-2.86L85.97-8.58L87.14-8.58L87.14-3.19Q87.19-0.84 89.30-0.80L89.30-0.80Q91.59-0.84 91.59-3.19L91.59-3.19ZM95.95-8.58L100.27-1.64L100.27-8.58L101.39-8.58L101.39 0L100.08 0L95.72-6.94L95.67-6.94L95.67 0L94.55 0L94.55-8.58L95.95-8.58Z" transform="translate(-0.890625, 8.8125)"></path></g></g></g></g></g><mask id="3b8f0b9d-a05f-454a-8a97-50f3b46a90de"><g fill="white"><rect data-gra="graph-name" x="0" y="0" rx="27.15273094177246" ry="27.15273094177246" width="215.22869873046875" height="54.30546188354492"></rect></g> <g data-gra="path-name" fill-rule="" class="tp-name" transform="translate(20,10)" fill="black"><g transform="scale(1)"><g><path d="M23.69-25.97L23.69-25.97Q24.65-27.73 26.19-26.63L26.19-26.63Q28.17-24.92 27.69-23.16L27.69-23.16Q26.98-20.96 26.81-18.24L26.81-18.24Q26.81-17.18 28.13-17.14L28.13-17.14Q34.15-17.09 37.71-16.7L37.71-16.7Q39.81-16.22 38.63-14.28L38.63-14.28Q37.75-13.05 36.39-13.18L36.39-13.18Q32.61-13.97 28.13-13.89L28.13-13.89Q26.67-13.71 26.67-12.79L26.67-12.79Q26.67-10.37 26.89-7.73L26.89-7.73Q26.85-6.59 27.51-5.98L27.51-5.98Q28.13-5.23 30.15-4.83L30.15-4.83Q37.27-2.77 41.92-5.05L41.92-5.05Q43.24-4.7 42.5-3.3L42.5-3.3Q40.39 1.23 37.05 1.01L37.05 1.01Q30.54-0.53 25.09-3.47L25.09-3.47Q24.08-4.26 23.95-5.54L23.95-5.54Q23.6-7.29 23.82-12L23.82-12 23.86-22.63 23.73-24.39Q23.51-25.27 23.69-25.97ZM15.64-26.67L15.64-26.67Q17.8-26.85 18.24-24.39L18.24-24.39Q18.33-23.33 17.89-20.87L17.89-20.87Q17.53-15.78 17.75-6.94L17.75-6.94Q17.75-5.71 18.33-5.67L18.33-5.67Q20.35-5.36 19.07-3.65L19.07-3.65Q18.54-3.21 17.31-2.77L17.31-2.77Q11.25-2.15 4.88 0.22L4.88 0.22Q4 0.53 3.16 0L3.16 0Q2.2-0.75 2.68-1.63L2.68-1.63Q3.82-3.47 5.89-4.22L5.89-4.22Q8.66-4.44 13.4-5.32L13.4-5.32Q14.46-5.45 14.46-6.5L14.46-6.5Q14.41-9.54 14.5-12.57L14.5-12.57Q14.55-13.93 13.49-13.93L13.49-13.93Q9.27-13.84 6.46-13.23L6.46-13.23Q5.58-12.96 4.7-13.05L4.7-13.05Q2.94-13.36 3.52-15.07L3.52-15.07Q4.79-17.53 7.12-17.18L7.12-17.18Q8.7-16.92 13.49-17.14L13.49-17.14Q14.55-17.23 14.5-18.54L14.5-18.54Q14.46-21.09 14.24-23.69L14.24-23.69Q13.71-25.97 15.64-26.67ZM65.79-30.85L65.79-30.85Q67.9-31.55 68.12-28.92L68.12-28.92Q68.07-28.48 69.13-28.48L69.13-28.48Q76.38-28.52 83.63-28.43L83.63-28.43Q85.43-28.7 85.52-27.33L85.52-27.33Q84.9-24.65 82.35-25.31L82.35-25.31Q77.34-26.32 67.24-25.4L67.24-25.4Q66.18-25.27 65-23.95L65-23.95Q60.95-19.56 58.67-21.27L58.67-21.27Q56.78-23.12 59.46-24.21L59.46-24.21Q61.22-24.83 62.97-25.97L62.97-25.97Q65.3-27.33 65.39-29.22L65.39-29.22Q65.3-30.23 65.79-30.85ZM51.06-28.96L51.06-28.96Q52.78-30.19 54.36-29.31L54.36-29.31Q55.37-28.21 56.38-27.47L56.38-27.47Q58.32-26.37 57.66-24.87L57.66-24.87Q57.26-24.13 56.16-24.57L56.16-24.57Q53.96-25.62 51.77-25.97L51.77-25.97Q49.04-27.03 51.06-28.96ZM65.26-21.67L65.26-21.67Q66.27-22.72 67.85-22.5L67.85-22.5 76.29-22.15Q79.72-22.19 81.56-21.67L81.56-21.67Q83.8-20.43 82.75-18.46L82.75-18.46 82.31-14.99Q82.13-13.8 83.1-13.71L83.1-13.71 88.07-13.01Q90.26-12.96 89.3-11.34L89.3-11.34Q87.32-8.17 85.17-9.58L85.17-9.58Q83.94-10.15 82.66-10.59L82.66-10.59Q81.52-10.94 81.25-9.62L81.25-9.62 80.42-6.68Q80.11-5.54 81.39-5.36L81.39-5.36Q83.58-5.1 84.38-4.66L84.38-4.66Q86.09-4.09 86.09-2.46L86.09-2.46Q85.56-0.35 83.14-1.19L83.14-1.19Q81.43-1.98 79.94-2.24L79.94-2.24Q78.88-2.46 78.18-1.1L78.18-1.1Q75.81 2.72 73.65 3.25L73.65 3.25Q73.04 3.47 72.25 2.86L72.25 2.86Q70.88 1.89 71.98 0.75L71.98 0.75Q73.48-0.35 74.44-1.63L74.44-1.63Q75.45-3.03 74.14-3.25L74.14-3.25Q71.63-3.56 68.07-3.47L68.07-3.47Q65.39-3.21 62.67-3.12L62.67-3.12Q60.69-3.56 61.04-5.05L61.04-5.05Q61.39-7.21 62.14-10.24L62.14-10.24Q62.45-11.34 61.08-10.94L61.08-10.94Q59.59-10.42 58.1-9.76L58.1-9.76Q56.95-9.45 56.34-9.98L56.34-9.98Q55.24-10.77 56.25-12.57L56.25-12.57Q57.48-14.15 59.28-13.97L59.28-13.97 62.14-14.02Q63.19-14.06 63.54-15.38L63.54-15.38Q64.47-20.04 65.26-21.67ZM70.4-19.6L70.4-19.6 69.52-19.56Q68.25-19.51 67.85-18.9L67.85-18.9Q67.32-18.06 66.67-15.47L66.67-15.47Q66.36-14.33 67.63-14.41L67.63-14.41Q69.3-14.55 71.1-14.55L71.1-14.55Q72.16-14.55 71.59-15.86L71.59-15.86Q71.41-16.61 71.06-17.18L71.06-17.18Q70.53-18.28 71.46-19.34L71.46-19.34Q71.89-19.73 70.4-19.6ZM77.61-19.38L77.61-19.38Q76.2-19.73 74.49-19.73L74.49-19.73Q73.26-19.73 73.56-19.51L73.56-19.51Q74.4-18.9 74.4-18.11L74.4-18.11Q74.18-16.96 73.78-15.69L73.78-15.69Q73.17-14.5 74.36-14.46L74.36-14.46Q76.2-14.41 78.18-14.24L78.18-14.24Q79.1-14.15 79.28-15.6L79.28-15.6Q79.94-18.63 77.61-19.38ZM48.34-18.11L48.34-18.11Q50.49-20.08 52.69-17.8L52.69-17.8Q53.39-17.14 54.45-16.61L54.45-16.61Q55.15-16.17 55.2-15.21L55.2-15.21Q55.11-13.93 53.61-14.24L53.61-14.24Q51.86-14.9 49.22-15.21L49.22-15.21Q46.67-15.95 48.34-18.11ZM70.36-12.08L70.36-12.08Q68.55-12.04 66.71-11.87L66.71-11.87Q65.65-11.73 65.21-10.37L65.21-10.37Q64.82-9.01 64.6-7.51L64.6-7.51Q64.51-6.46 65.7-6.46L65.7-6.46Q67.94-6.5 70.31-6.37L70.31-6.37Q71.32-6.33 71.1-6.55L71.1-6.55Q70.71-6.99 70.53-8.26L70.53-8.26Q70.09-9.14 69.96-10.02L69.96-10.02Q69.87-10.77 70.53-11.51L70.53-11.51Q71.19-12.08 70.36-12.08ZM77.34-11.73L77.34-11.73Q75.23-12 73.13-12.08L73.13-12.08Q71.94-12.08 72.47-11.87L72.47-11.87Q74.27-10.68 73.26-8.96L73.26-8.96Q72.95-7.12 72.51-6.5L72.51-6.5Q72.2-6.24 73.52-6.15L73.52-6.15Q74.71-6.11 75.89-5.93L75.89-5.93Q76.95-5.84 77.43-7.21L77.43-7.21Q78-8.83 78.4-10.46L78.4-10.46Q78.66-11.56 77.34-11.73ZM54.45-7.16L54.45-7.16Q55.99-9.14 57.04-8.31L57.04-8.31Q57.39-7.95 57.04-6.59L57.04-6.59Q56.34-4.92 55.15-3.38L55.15-3.38Q53.75-1.19 52.47 1.01L52.47 1.01Q50.67 2.68 49.04 0.48L49.04 0.48Q48.03-0.83 49.53-2.15L49.53-2.15Q51.64-3.78 54.45-7.16ZM120.28-29.53L120.28-29.53Q121.51-31.77 123.27-29.05L123.27-29.05Q123.84-28.08 122.87-27.11L122.87-27.11Q122.34-26.54 123.66-26.54L123.66-26.54Q124.41-26.54 125.29-26.72L125.29-26.72Q127.13-27.07 128.45-25.84L128.45-25.84Q129.59-24.87 128.85-23.2L128.85-23.2Q128.5-22.15 128.32-19.69L128.32-19.69Q128.28-18.72 128.06-17.75L128.06-17.75Q127.97-16.3 126.3-15.91L126.3-15.91Q122.48-16.22 119.36-15.78L119.36-15.78Q118.3-15.47 118.17-14.81L118.17-14.81Q118.13-14.11 119.18-14.11L119.18-14.11Q126.21-14.19 133.37-14.11L133.37-14.11Q134.6-13.18 133.2-11.91L133.2-11.91Q132.06-10.46 130.61-10.59L130.61-10.59Q125.55-12.04 119.27-11.38L119.27-11.38Q117.25-11.47 118.56-9.76L118.56-9.76Q124.98-10.06 128.8-9.49L128.8-9.49Q130.91-9.23 132.32-8.44L132.32-8.44Q134.3-6.94 132.93-5.05L132.93-5.05Q132.32-3.3 131.88-1.54L131.88-1.54Q131.4 0.4 129.73 1.98L129.73 1.98Q128.89 3.03 127.71 3.08L127.71 3.08Q126.96 2.9 126.96 2.24L126.96 2.24Q127 1.49 127.92 0.09L127.92 0.09Q129.46-3.78 129.29-6.06L129.29-6.06Q128.8-7.12 126.56-7.29L126.56-7.29Q121.6-7.43 118.04-6.86L118.04-6.86Q117.42-6.5 116.28-6.28L116.28-6.28Q114.39-6.28 114.65-8L114.65-8Q115.8-11.07 115.36-16.74L115.36-16.74Q115.18-20.04 114.83-23.38L114.83-23.38Q114.74-25.4 115.05-26.5L115.05-26.5Q115.71-27.07 117.29-26.89L117.29-26.89 118.7-26.76Q119.66-26.63 119.93-28.08L119.93-28.08Q120.01-28.87 120.28-29.53ZM95.67-27.2L95.67-27.2Q96.42-27.86 98.22-27.29L98.22-27.29Q99.1-27.03 101.38-27.11L101.38-27.11Q104.41-26.94 103.27-23.95L103.27-23.95Q102.22-18.24 103.1-8.48L103.1-8.48Q103.32-7.47 103.62-8.7L103.62-8.7Q104.68-16.3 104.15-24.92L104.15-24.92Q104.55-28.26 107.23-27.38L107.23-27.38Q108.41-26.76 110.65-26.98L110.65-26.98Q114.17-26.98 112.76-23.29L112.76-23.29Q112.1-20.08 112.15-16.13L112.15-16.13Q112.1-10.11 112.98-3.03L112.98-3.03Q113.47-1.41 112.41-0.26L112.41-0.26Q110.87 0.4 110.21-1.05L110.21-1.05Q109.56-4.39 109.64-8.44L109.64-8.44Q109.64-9.49 108.33-10.02L108.33-10.02Q106.88-10.2 106.74-8.92L106.74-8.92Q106.26-5.49 104.9-2.37L104.9-2.37Q104.72-1.36 103.49-0.35L103.49-0.35Q101.78 0.83 100.94-0.97L100.94-0.97Q100.63-1.89 101.95-3.69L101.95-3.69Q102.39-4.79 102.04-4.75L102.04-4.75Q101.43-4.66 100.81-5.41L100.81-5.41Q100.11-6.68 100.15-8.96L100.15-8.96Q100.15-10.02 98.83-10.15L98.83-10.15Q97.34-10.06 97.16-8.79L97.16-8.79Q96.64-5.19 95.23-2.29L95.23-2.29Q93.96-0.35 92.5-0.7L92.5-0.7Q91.05-1.45 91.89-2.86L91.89-2.86Q94.35-7.25 94.57-13.4L94.57-13.4Q94.83-17.14 94.75-23.99L94.75-23.99Q94.39-25.8 95.67-27.2ZM99.84-24.65L99.84-24.65Q99.4-24.79 98.66-24.65L98.66-24.65Q97.82-24.35 97.78-23.29L97.78-23.29Q97.69-22.41 97.73-21.53L97.73-21.53Q97.73-20.48 98.26-20.57L98.26-20.57Q98.88-20.61 99.45-20.39L99.45-20.39Q100.28-19.91 100.28-20.92L100.28-20.92Q100.24-22.15 100.33-23.42L100.33-23.42Q100.28-24.48 99.84-24.65ZM109.78-20.79L109.78-22.98Q110.3-24.92 108.06-24.57L108.06-24.57Q107.36-24.3 107.23-22.98L107.23-22.98 107.23-21.8Q107.18-20.57 107.67-20.65L107.67-20.65Q108.28-20.61 108.98-20.21L108.98-20.21Q109.78-19.78 109.78-20.79L109.78-20.79ZM124.85-24.04L124.85-24.04Q121.68-24.08 118.52-23.99L118.52-23.99Q117.82-23.77 117.99-23.03L117.99-23.03Q117.95-22.59 119.05-22.59L119.05-22.59Q121.73-22.5 124.54-22.59L124.54-22.59Q125.6-22.63 125.6-23.12L125.6-23.12Q125.73-23.86 124.85-24.04ZM124.23-19.95L124.23-19.95Q121.64-20 119.05-19.86L119.05-19.86Q117.99-19.82 117.99-19.25L117.99-19.25Q118.08-17.8 119.58-18.24L119.58-18.24 123.09-18.5Q124.89-18.28 125.33-19.42L125.33-19.42Q125.29-19.86 124.23-19.95ZM109.69-13.49L109.73-15.64Q109.73-16.96 108.41-17.36L108.41-17.36Q107.14-17.53 107.14-16.35L107.14-16.35 107.05-14.28Q107.05-13.23 107.49-13.23 107.93-13.23 108.81-12.83 109.69-12.44 109.69-13.49L109.69-13.49ZM100.2-16.26L100.2-16.26Q100.24-17.36 98.92-17.4L98.92-17.4Q97.69-17.4 97.69-16.22L97.69-16.22 97.6-14.24Q97.6-13.18 98.04-13.23L98.04-13.23Q98.48-13.23 99.27-13.01L99.27-13.01Q100.11-12.57 100.15-13.97L100.15-13.97Q100.11-15.12 100.2-16.26ZM122.12-5.93L122.12-5.93Q122.96-6.42 123.84-5.63L123.84-5.63Q124.37-5.1 124.23-3.65L124.23-3.65 123.71-0.31Q122.65 0.13 122.17-1.36L122.17-1.36Q121.29-3.47 121.33-4.88L121.33-4.88Q121.55-5.67 122.12-5.93ZM125.73-5.71L125.73-5.71Q128.14-6.86 127.97-3.91L127.97-3.91 127.62-1.27Q127.57-0.09 126.65-0.44L126.65-0.44Q125.95-1.45 125.46-3.3L125.46-3.3Q124.89-4.61 125.73-5.71ZM114.08-5.45L114.08-5.45Q115.62-6.02 116.28-4.26L116.28-4.26 116.67-1.19Q116.76 0.44 116.37 0.7L116.37 0.7Q116.06 0.75 115-0.4L115-0.4Q113.25-2.9 113.29-4.53L113.29-4.53Q113.51-5.01 114.08-5.45ZM117.55-5.23L117.55-5.23Q118.43-6.15 119.71-5.45L119.71-5.45Q120.67-3.78 120.28-0.35L120.28-0.35Q119.53 0.62 118.48-1.23L118.48-1.23Q117.55-2.68 117.33-3.56L117.33-3.56Q116.98-4.39 117.55-5.23ZM151.52-29.71L151.52-29.71Q153.72-30.01 157.72-29.93L157.72-29.93 159.48-29.66Q161.89-28.96 161.54-26.85L161.54-26.85 160.84-19.82Q160.71-18.11 158.69-17.45L158.69-17.45Q154.82-17.49 153.06-17.31L153.06-17.31Q151.7-16.83 151.57-15.51L151.57-15.51Q151.39-6.86 148.1 0.79L148.1 0.79Q148.01 2.24 146.16 2.81L146.16 2.81Q145.2 2.99 144.62 1.8L144.62 1.8Q144.32 0.57 145.28-1.71L145.28-1.71 145.68-2.59Q146.34-3.3 146.87-5.23L146.87-5.23Q149.28-14.55 148.71-27.91L148.71-27.91Q148.8-30.15 151.52-29.71ZM164.18-29.31L164.18-29.31Q165.01-29.58 167.48-29.49L167.48-29.49Q170.68-29.31 173.89-29.36L173.89-29.36Q174.95-29.49 175.65-28.74L175.65-28.74Q176.53-27.95 176.35-26.98L176.35-26.98Q175.3-22.63 175.65-17.71L175.65-17.71Q175.87-8.66 177.67-0.13L177.67-0.13Q178.11 2.55 176.09 2.99L176.09 2.99Q175.39 3.08 174.9 2.29L174.9 2.29Q174.11-0.18 173.67-4.75L173.67-4.75Q173.14-9.93 172.66-16.88L172.66-16.88Q172.49-17.93 171.17-18.11L171.17-18.11Q168.84-18.11 165.63-17.4L165.63-17.4Q164-16.83 163.61-18.85L163.61-18.85Q163.48-22.59 163.17-26.37L163.17-26.37Q163.13-27.51 163.3-28.13L163.3-28.13Q163.56-29.09 164.18-29.31ZM140.1-27.64L140.1-27.64Q141.5-29.18 143.31-28.56L143.31-28.56Q143.75-28.43 144.18-27.95L144.18-27.95Q144.89-26.98 145.81-26.32L145.81-26.32Q147.17-25.18 146.29-23.99L146.29-23.99Q145.2-23.38 144.27-24.13L144.27-24.13Q143.04-24.7 140.76-25.22L140.76-25.22Q139-26.1 140.1-27.64ZM156.88-27.16L156.88-27.16Q154.64-27.38 153.11-27.03L153.11-27.03Q151.66-27.11 151.66-25.62L151.66-25.62Q151.61-24.92 152.71-24.87L152.71-24.87Q154.91-24.79 157.24-24.87L157.24-24.87Q158.38-24.92 158.29-25.93L158.29-25.93Q158.03-26.94 156.88-27.16ZM171.04-26.98L171.04-26.98Q167.52-27.2 166.29-26.37L166.29-26.37Q165.23-24.57 166.99-24.87L166.99-24.87Q169.23-24.79 171.61-24.87L171.61-24.87Q172.66-24.96 172.62-25.84L172.62-25.84Q172.35-26.72 171.04-26.98ZM158.16-20.83L158.29-21.53Q158.29-22.06 157.02-22.15L157.02-22.15Q154.91-22.24 152.75-22.15L152.75-22.15Q151.7-22.06 151.7-20.96L151.7-20.96Q151.74-19.86 153.15-19.86L153.15-19.86Q156.8-20 158.16-20.83L158.16-20.83ZM172.57-21.36L172.57-21.36Q172.57-22.15 171.25-22.24L171.25-22.24 167.48-22.24Q166.03-22.1 166.07-21.4L166.07-21.4Q165.89-20.39 167.17-20.26L167.17-20.26Q168.84-20.35 170.82-20.61L170.82-20.61 171.39-20.61Q172.44-20.61 172.57-21.36ZM138.08-17.53L138.08-17.53Q139.48-18.94 141.06-18.41L141.06-18.41Q141.72-18.06 143.26-16.83L143.26-16.83Q145.33-16.04 144.58-14.37L144.58-14.37Q143.96-13.58 142.16-14.33L142.16-14.33Q140.41-14.63 138.65-14.81L138.65-14.81Q136.67-15.73 138.08-17.53ZM166.07-15.91L166.07-15.91Q166.95-16.48 167.7-15.25L167.7-15.25Q169.5-12.7 166.42-12.39L166.42-12.39 165.19-12.35Q164.14-12.26 164-11.25L164-11.25Q164-10.15 165.06-10.15L165.06-10.15Q167.65-10.11 168.71-9.84L168.71-9.84Q169.76-9.71 169.63-8.48L169.63-8.48Q169.41-7.78 168.88-7.56L168.88-7.56Q167.96-7.29 165.15-7.51L165.15-7.51Q164.09-7.51 164.09-6.33L164.09-6.33Q164.18-5.14 165.5-5.05L165.5-5.05Q168.13-4.83 170.77-4.44L170.77-4.44Q172.92-4.57 172.09-2.94L172.09-2.94Q170.2-0.31 168.49-1.19L168.49-1.19Q166.99-1.98 165.32-2.2L165.32-2.2Q159.79-2.86 156.23-1.76L156.23-1.76Q154.73-0.83 153.41-1.32L153.41-1.32Q152.8-1.67 152.75-2.55L152.75-2.55Q153.28-5.05 155.74-4.75L155.74-4.75Q157.81-4.97 159.87-5.05L159.87-5.05Q160.93-5.1 161.02-6.28L161.02-6.28Q161.06-7.47 159.74-7.47L159.74-7.47Q158.03-7.38 156.27-7.12L156.27-7.12Q154.42-7.29 154.73-9.01L154.73-9.01Q155.13-9.84 155.74-9.98L155.74-9.98Q157.68-10.37 160-10.24L160-10.24Q160.97-10.24 160.97-11.25L160.97-11.25Q160.88-12.17 159.57-12.13L159.57-12.13Q156.67-11.87 154.86-12.96L154.86-12.96Q154.6-13.4 155.08-13.8L155.08-13.8Q155.79-14.15 156.67-14.11L156.67-14.11Q160.18-14.5 163.7-15.07L163.7-15.07Q165.15-15.16 166.07-15.91ZM144.1-8.96L144.1-8.96Q144.93-9.32 145.42-8.75L145.42-8.75Q145.72-8.35 145.24-7.03L145.24-7.03Q144.76-5.98 142.91-3.52L142.91-3.52 141.86-1.76Q140.45 0.18 138.87-1.19L138.87-1.19Q136.54-3.21 139.31-4.88L139.31-4.88Q141.06-6.06 144.1-8.96Z" transform="translate(-2.5199999809265137, 30.997146606445312)"></path></g>       </g></g></mask><defs v-gra="od"></defs></svg>